<svg id="visual" xmlns="http://www.w3.org/2000/svg" xmlns:xlink="http://www.w3.org/1999/xlink" version="1.1" viewBox="0 82.45 1000 118.55"><path d="M0 107L11.2 102.5C22.3 98 44.7 89 66.8 85C89 81 111 82 133.2 86.3C155.3 90.7 177.7 98.3 200 103.5C222.3 108.7 244.7 111.3 266.8 112.7C289 114 311 114 333.2 110.5C355.3 107 377.7 100 400 97C422.3 94 444.7 95 466.8 94.5C489 94 511 92 533.2 94.8C555.3 97.7 577.7 105.3 600 109.8C622.3 114.3 644.7 115.7 666.8 113.8C689 112 711 107 733.2 102C755.3 97 777.7 92 800 91.8C822.3 91.7 844.7 96.3 866.8 98.8C889 101.3 911 101.7 933.2 103.3C955.3 105 977.7 108 988.8 109.5L1000 111L1000 201L988.8 201C977.7 201 955.3 201 933.2 201C911 201 889 201 866.8 201C844.7 201 822.3 201 800 201C777.7 201 755.3 201 733.2 201C711 201 689 201 666.8 201C644.7 201 622.3 201 600 201C577.7 201 555.3 201 533.2 201C511 201 489 201 466.8 201C444.7 201 422.3 201 400 201C377.7 201 355.3 201 333.2 201C311 201 289 201 266.8 201C244.7 201 222.3 201 200 201C177.7 201 155.3 201 133.2 201C111 201 89 201 66.8 201C44.7 201 22.3 201 11.2 201L0 201Z" fill="#020887" stroke-linecap="round" stroke-linejoin="miter"/></svg>